{"title":"Star Parivaar Crystal Party (2015) Untouched 720p WEBHD - AAC 2.","uid":12018362,"size":318264479,"categoryP":"video","categoryS":"tv_shows","magnet":"?xt=urn:btih:98f4ca4ceac43787d88058143ce8d54156824b02&amp;dn=Star+Parivaar+Crystal+Party+%282015%29+Untouched+720p+WEBHD+-+AAC+2.&amp;tr=udp%3A%2F%2Ftracker.openbittorrent.com%3A80&amp;tr=udp%3A%2F%2Fopen.demonii.com%3A1337&amp;tr=udp%3A%2F%2Ftracker.coppersurfer.tk%3A6969&amp;tr=udp%3A%2F%2Fexodus.desync.com%3A6969","seeders":0,"leechers":1,"uploader":"SS132203","files":2,"time":1434351559,"description":"Star Parivaar Crystal Party (2015) Untouched 720p WEBHD - AAC 2.0 - Team Telly Exclusive \n &lt;a href=&quot;\nhttp://imgsparrow.co/image/hT&quot; rel=&quot;nofollow&quot; target=&quot;_NEW&quot;&gt;\nhttp://imgsparrow.co/image/hT&lt;/a&gt;\n &lt;a href=&quot;\nhttp://imgsparrow.co/image/yp&quot; rel=&quot;nofollow&quot; target=&quot;_NEW&quot;&gt;\nhttp://imgsparrow.co/image/yp&lt;/a&gt;\n\nInfo : - \n\nAll Credit Goes To Team Telly (Thank Them Not Me)\nExclusive First On Net\n\nFormat : MPEG-4\nFormat profile : Base Media\nCodec ID : isom\nFile size : 304 MiB\nDuration : 20mn 31s\nOverall bit rate mode : Variable\nOverall bit rate : 2 067 Kbps\nWriting application : Lavf55.32.101\n\nVideo\nID : 1\nFormat : AVC\nFormat/Info : Advanced Video Codec\nFormat profile : &lt;a class=&quot;__cf_email__&quot; href=&quot;/cdn-cgi/l/email-protection&quot; data-cfemail=&quot;cb86aaa2a58b87f8e5fa&quot;&gt;[email&amp;#160;protected]&lt;/a&gt;&lt;script data-cfhash='f9e31' type=&quot;text/javascript&quot;&gt;\n/* &lt;![CDATA[ */!function(){try{var t=&quot;currentScript&quot;in document?document.currentScript:function(){for(var t=document.getElementsByTagName(&quot;script&quot;),e=t.length;e--;)if(t[e].getAttribute(&quot;data-cfhash&quot;))return t[e]}();if(t&amp;&amp;t.previousSibling){var e,r,n,i,c=t.previousSibling,a=c.getAttribute(&quot;data-cfemail&quot;);if(a){for(e=&quot;&quot;,r=parseInt(a.substr(0,2),16),n=2;a.length-n;n+=2)i=parseInt(a.substr(n,2),16)^r,e+=String.fromCharCode(i);e=document.createTextNode(e),c.parentNode.replaceChild(e,c)}t.parentNode.removeChild(t);}}catch(u){}}()/* ]]&gt; */&lt;/script&gt;\nFormat settings, CABAC : Yes\nFormat settings, ReFrames : 1 frame\nFormat settings, GOP : M=1, N=25\nCodec ID : avc1\nCodec ID/Info : Advanced Video Coding\nDuration : 20mn 31s\nBit rate mode : Constant\nBit rate : 2 000 Kbps\nWidth : 1 280 pixels\nHeight : 720 pixels\nDisplay aspect ratio : 16:9\nFrame rate mode : Constant\nFrame rate : 25.000 fps\nColor space : YUV\nChroma subsampling : 4:2:0\nBit depth : 8 bits\nScan type : Progressive\nBits/(Pixel*Frame) : 0.087\nStream size : 294 MiB (97%)\n\nAudio\nID : 2\nFormat : AAC\nFormat/Info : Advanced Audio Codec\nFormat profile : LC\nCodec ID : 40\nDuration : 20mn 31s\nBit rate mode : Variable\nBit rate : 61.4 Kbps\nMaximum bit rate : 63.8 Kbps\nChannel(s) : 2 channels\nChannel positions : Front: L R\nSampling rate : 48.0 KHz\nCompression mode : Lossy\nStream size : 9.01 MiB (3%)\n\nScreens : - \n &lt;a href=&quot;\nhttp://imgsparrow.co/image/yv&quot; rel=&quot;nofollow&quot; target=&quot;_NEW&quot;&gt;\nhttp://imgsparrow.co/image/yv&lt;/a&gt; &lt;a href=&quot;\nhttp://imgsparrow.co/image/yx&quot; rel=&quot;nofollow&quot; target=&quot;_NEW&quot;&gt;\nhttp://imgsparrow.co/image/yx&lt;/a&gt; &lt;a href=&quot;\nhttp://imgsparrow.co/image/yC&quot; rel=&quot;nofollow&quot; target=&quot;_NEW&quot;&gt;\nhttp://imgsparrow.co/image/yC&lt;/a&gt; &lt;a href=&quot;\nhttp://imgsparrow.co/image/y1&quot; rel=&quot;nofollow&quot; target=&quot;_NEW&quot;&gt;\nhttp://imgsparrow.co/image/y1&lt;/a&gt; &lt;a href=&quot;\nhttp://imgsparrow.co/image/56&quot; rel=&quot;nofollow&quot; target=&quot;_NEW&quot;&gt;\nhttp://imgsparrow.co/image/56&lt;/a&gt; &lt;a href=&quot;\nhttp://imgsparrow.co/image/58&quot; rel=&quot;nofollow&quot; target=&quot;_NEW&quot;&gt;\nhttp://imgsparrow.co/image/58&lt;/a&gt; &lt;a href=&quot;\nhttp://imgsparrow.co/image/59&quot; rel=&quot;nofollow&quot; target=&quot;_NEW&quot;&gt;\nhttp://imgsparrow.co/image/59&lt;/a&gt; &lt;a href=&quot;\nhttp://imgsparrow.co/image/5L&quot; rel=&quot;nofollow&quot; target=&quot;_NEW&quot;&gt;\nhttp://imgsparrow.co/image/5L&lt;/a&gt;\n &lt;a href=&quot;\nhttp://imgsparrow.co/image/N2&quot; rel=&quot;nofollow&quot; target=&quot;_NEW&quot;&gt;\nhttp://imgsparrow.co/image/N2&lt;/a&gt;","torrent":{"xt":"urn:btih:98f4ca4ceac43787d88058143ce8d54156824b02","amp;dn":"Star+Parivaar+Crystal+Party+%282015%29+Untouched+720p+WEBHD+-+AAC+2.","amp;tr":["udp%3A%2F%2Ftracker.openbittorrent.com%3A80","udp%3A%2F%2Fopen.demonii.com%3A1337","udp%3A%2F%2Ftracker.coppersurfer.tk%3A6969","udp%3A%2F%2Fexodus.desync.com%3A6969"],"infoHash":"98f4ca4ceac43787d88058143ce8d54156824b02","infoHashBuffer":{"type":"Buffer","data":[152,244,202,76,234,196,55,135,216,128,88,20,60,232,213,65,86,130,75,2]},"announce":[],"urlList":[]}}